<svg width="14" height="14" viewBox="0 0 14 14" fill="none" xmlns="http://www.w3.org/2000/svg">
<path d="M9.96808 0C10.9849 0 11.9601 0.403925 12.679 1.12292C13.398 1.84191 13.802 2.81707 13.802 3.83388V9.96808C13.802 10.9849 13.398 11.9601 12.679 12.679C11.9601 13.398 10.9849 13.802 9.96808 13.802H3.83388C2.81707 13.802 1.84191 13.398 1.12292 12.679C0.403925 11.9601 0 10.9849 0 9.96808V3.83388C0 2.81707 0.403925 1.84191 1.12292 1.12292C1.84191 0.403925 2.81707 0 3.83388 0H9.96808ZM6.90098 3.83388C6.08753 3.83388 5.3074 4.15702 4.73221 4.73221C4.15702 5.3074 3.83388 6.08753 3.83388 6.90098C3.83388 7.71443 4.15702 8.49456 4.73221 9.06975C5.3074 9.64494 6.08753 9.96808 6.90098 9.96808C7.71443 9.96808 8.49456 9.64494 9.06975 9.06975C9.64494 8.49456 9.96808 7.71443 9.96808 6.90098C9.96808 6.08753 9.64494 5.3074 9.06975 4.73221C8.49456 4.15702 7.71443 3.83388 6.90098 3.83388ZM6.90098 5.36743C7.3077 5.36743 7.69777 5.529 7.98537 5.8166C8.27296 6.10419 8.43453 6.49426 8.43453 6.90098C8.43453 7.3077 8.27296 7.69777 7.98537 7.98537C7.69777 8.27296 7.3077 8.43453 6.90098 8.43453C6.49426 8.43453 6.10419 8.27296 5.8166 7.98537C5.529 7.69777 5.36743 7.3077 5.36743 6.90098C5.36743 6.49426 5.529 6.10419 5.8166 5.8166C6.10419 5.529 6.49426 5.36743 6.90098 5.36743ZM10.3515 2.68371C10.1481 2.68371 9.95308 2.7645 9.80928 2.9083C9.66548 3.0521 9.5847 3.24713 9.5847 3.45049C9.5847 3.65385 9.66548 3.84888 9.80928 3.99268C9.95308 4.13648 10.1481 4.21727 10.3515 4.21727C10.5548 4.21727 10.7499 4.13648 10.8937 3.99268C11.0375 3.84888 11.1182 3.65385 11.1182 3.45049C11.1182 3.24713 11.0375 3.0521 10.8937 2.9083C10.7499 2.7645 10.5548 2.68371 10.3515 2.68371Z" fill="#373737"/>
</svg>
