<svg width="16" height="16" viewBox="0 0 16 16" fill="none" xmlns="http://www.w3.org/2000/svg">
<path d="M7.66668 0C11.901 0 15.3333 3.43237 15.3333 7.66667C15.3333 11.901 11.901 15.3333 7.66668 15.3333C6.31179 15.3357 4.98072 14.9771 3.81035 14.2945L0.00307852 15.3333L1.03961 11.5245C0.35648 10.3538 -0.00236258 9.02215 1.1706e-05 7.66667C1.1706e-05 3.43237 3.43238 0 7.66668 0ZM5.05388 4.06333L4.90055 4.06947C4.80141 4.0763 4.70455 4.10234 4.61535 4.14613C4.53222 4.19329 4.45631 4.25216 4.38995 4.32093C4.29795 4.40757 4.24581 4.4827 4.18985 4.55553C3.90627 4.92423 3.75359 5.37687 3.75591 5.842C3.75745 6.21767 3.85558 6.58337 4.00891 6.9253C4.32248 7.61683 4.83845 8.349 5.51925 9.0275C5.68331 9.1908 5.84431 9.35487 6.01758 9.50743C6.86354 10.2522 7.87159 10.7893 8.96158 11.076L9.39705 11.1427C9.53888 11.1504 9.68071 11.1397 9.82331 11.1328C10.0466 11.121 10.2645 11.0606 10.4619 10.9557C10.5623 10.9038 10.6602 10.8475 10.7556 10.787C10.7556 10.787 10.788 10.765 10.8514 10.718C10.9549 10.6413 11.0185 10.5869 11.1044 10.4972C11.1688 10.4308 11.2225 10.3536 11.2654 10.2657C11.3252 10.1407 11.385 9.90227 11.4095 9.7037C11.4279 9.5519 11.4226 9.4691 11.4203 9.41773C11.4172 9.3357 11.349 9.2506 11.2746 9.21457L10.8284 9.01447C10.8284 9.01447 10.1614 8.7239 9.75355 8.53837C9.71085 8.51978 9.66513 8.50913 9.61861 8.50693C9.56615 8.50145 9.51312 8.5073 9.46312 8.5241C9.41312 8.5409 9.36732 8.56825 9.32881 8.6043C9.32498 8.60277 9.27361 8.64647 8.71931 9.31807C8.6875 9.36082 8.64367 9.39313 8.59343 9.41088C8.54318 9.42863 8.48879 9.43101 8.43718 9.41773C8.38721 9.40442 8.33827 9.38751 8.29075 9.36713C8.19568 9.32727 8.16271 9.31193 8.09755 9.28433C7.65738 9.0926 7.24995 8.83313 6.89005 8.51537C6.79345 8.43103 6.70375 8.33903 6.61175 8.2501C6.31015 7.96123 6.04729 7.63446 5.82975 7.27797L5.78451 7.20513C5.75251 7.15591 5.72628 7.10318 5.70631 7.04797C5.67718 6.93527 5.75308 6.8448 5.75308 6.8448C5.75308 6.8448 5.93938 6.64087 6.02601 6.53047C6.11035 6.42313 6.18165 6.31887 6.22765 6.2445C6.31811 6.09883 6.34648 5.94933 6.29895 5.83357C6.08428 5.30917 5.86246 4.78758 5.63348 4.2688C5.58825 4.16607 5.45408 4.09247 5.33218 4.0779C5.29078 4.07279 5.24938 4.0687 5.20798 4.06563C5.10504 4.05973 5.00182 4.06075 4.89901 4.0687L5.05388 4.06333Z" fill="#373737"/>
</svg>
